<svg width="59" height="58" viewBox="0 0 59 58" fill="none" xmlns="http://www.w3.org/2000/svg">
<path fill-rule="evenodd" clip-rule="evenodd" d="M1.66885 1.16885C2.78852 0.0491846 4.60386 0.0491846 5.72353 1.16885L29.5 24.9453L53.2764 1.16885C54.3961 0.0491846 56.2115 0.0491846 57.3311 1.16885C58.4508 2.28852 58.4508 4.10386 57.3311 5.22353L33.5547 29L57.3311 52.7764C58.4508 53.8961 58.4508 55.7115 57.3311 56.8311C56.2115 57.9508 54.3961 57.9508 53.2764 56.8311L29.5 33.0547L5.72353 56.8311C4.60386 57.9508 2.78852 57.9508 1.66885 56.8311C0.549185 55.7115 0.549185 53.8961 1.66885 52.7764L25.4453 29L1.66885 5.22353C0.549185 4.10386 0.549185 2.28852 1.66885 1.16885Z" fill="white"/>
</svg>
