<svg width="101" height="58" viewBox="0 0 101 58" fill="none" xmlns="http://www.w3.org/2000/svg">
<path d="M100.304 52.242C100.183 51.9807 100.07 51.764 99.9648 51.5904C98.2279 48.4621 94.9086 44.6224 90.0091 40.07L89.9056 39.9658L89.8537 39.9147L89.8013 39.8623H89.7487C87.5251 37.7425 86.1169 36.3172 85.5272 35.5875C84.4483 34.1974 84.2066 32.7904 84.7962 31.3647C85.2129 30.2876 86.7778 28.0128 89.4875 24.5372C90.9128 22.6953 92.0416 21.2191 92.8752 20.1069C98.8873 12.1141 101.494 7.0066 100.694 4.78238L100.384 4.26262C100.175 3.9497 99.6364 3.66343 98.7687 3.40236C97.8989 3.14184 96.7873 3.09875 95.4317 3.27237L80.4203 3.37607C80.1771 3.2899 79.8299 3.29793 79.3775 3.40236C78.9256 3.50679 78.6996 3.55919 78.6996 3.55919L78.4384 3.68972L78.231 3.84654C78.0571 3.95024 77.866 4.13263 77.6573 4.39333C77.4497 4.65313 77.2761 4.95801 77.1374 5.30544C75.503 9.51014 73.6449 13.4194 71.5594 17.0332C70.2736 19.188 69.0927 21.0555 68.0143 22.6367C66.9374 24.2174 66.0338 25.382 65.3047 26.1285C64.5744 26.8757 63.9153 27.4744 63.3234 27.9266C62.7325 28.379 62.2813 28.5701 61.969 28.5002C61.6559 28.4303 61.361 28.3609 61.0819 28.2915C60.5957 27.9786 60.2046 27.5531 59.9098 27.0145C59.6137 26.4759 59.4143 25.798 59.3101 24.9814C59.2064 24.1643 59.145 23.4614 59.1275 22.8704C59.1113 22.2802 59.1187 21.4453 59.154 20.3681C59.1901 19.2904 59.2064 18.5613 59.2064 18.179C59.2064 16.8583 59.2321 15.4249 59.2838 13.8786C59.3364 12.3323 59.3789 11.1071 59.4145 10.2044C59.4499 9.30092 59.4663 8.345 59.4663 7.33723C59.4663 6.32946 59.405 5.53912 59.2838 4.9655C59.164 4.3926 58.9802 3.8365 58.7379 3.29738C58.4942 2.75881 58.1374 2.34219 57.6693 2.04643C57.2003 1.75104 56.6172 1.51662 55.9233 1.34246C54.0813 0.925654 51.7359 0.700184 48.8859 0.665131C42.4228 0.595756 38.2699 1.0131 36.4282 1.91663C35.6985 2.29838 35.0381 2.81997 34.4477 3.47977C33.8221 4.24454 33.7348 4.66189 34.1865 4.73054C36.2717 5.04291 37.748 5.79015 38.6168 6.97155L38.9299 7.59757C39.1735 8.04924 39.4166 8.84888 39.66 9.9954C39.903 11.1419 40.0598 12.4102 40.1288 13.7996C40.3023 16.3367 40.3023 18.5085 40.1288 20.3152C39.9549 22.1226 39.7905 23.5296 39.6337 24.5374C39.4769 25.5452 39.2425 26.3618 38.9299 26.9871C38.6168 27.6126 38.4085 27.9949 38.3041 28.1336C38.1998 28.2724 38.1129 28.3598 38.0439 28.3941C37.5923 28.5672 37.1225 28.6554 36.6363 28.6554C36.1494 28.6554 35.559 28.4119 34.8642 27.9251C34.1695 27.4384 33.4485 26.7698 32.7013 25.9184C31.954 25.0667 31.1113 23.8765 30.1727 22.3477C29.2349 20.8189 28.2618 19.012 27.254 16.9271L26.4202 15.4151C25.899 14.4424 25.187 13.026 24.2835 11.1673C23.3794 9.30786 22.5803 7.5092 21.8856 5.77171C21.608 5.04199 21.1908 4.48644 20.6349 4.10415L20.374 3.94732C20.2006 3.80857 19.9221 3.66124 19.5402 3.50423C19.1577 3.34741 18.7586 3.23494 18.3413 3.16575L4.05925 3.26945C2.59981 3.26945 1.60957 3.60008 1.08816 4.26042L0.879481 4.5728C0.775236 4.74678 0.722656 5.02465 0.722656 5.40713C0.722656 5.78942 0.826902 6.25862 1.03558 6.81417C3.12049 11.7143 5.38779 16.44 7.83748 20.9921C10.2872 25.5443 12.4159 29.2111 14.2224 31.9894C16.0293 34.7698 17.871 37.3938 19.7476 39.8603C21.6242 42.3277 22.8664 43.9089 23.4742 44.6036C24.0827 45.2995 24.5606 45.8198 24.908 46.1672L26.2114 47.418C27.0454 48.2522 28.27 49.2512 29.8859 50.415C31.5022 51.5796 33.2915 52.7261 35.2548 53.8564C37.2185 54.9849 39.503 55.9057 42.1095 56.6179C44.7157 57.3308 47.2522 57.6169 49.7196 57.4789H55.714C56.9298 57.3739 57.8508 56.9916 58.4768 56.3318L58.6842 56.0706C58.8237 55.8632 58.9542 55.541 59.0747 55.1074C59.1967 54.673 59.2573 54.1945 59.2573 53.674C59.2217 52.1801 59.3354 50.8337 59.5954 49.6349C59.8552 48.4365 60.1513 47.533 60.4825 46.9245C60.8135 46.3166 61.187 45.8036 61.6027 45.3877C62.0194 44.9709 62.3162 44.7184 62.4904 44.6315C62.6635 44.544 62.8017 44.4847 62.9059 44.4491C63.7399 44.1712 64.7214 44.4403 65.8518 45.2577C66.9814 46.0743 68.0408 47.0826 69.0318 48.281C70.0222 49.4805 71.2122 50.8262 72.6019 52.3201C73.9925 53.8146 75.2084 54.9255 76.2505 55.6563L77.2926 56.2818C77.9885 56.6992 78.892 57.0815 80.0042 57.4289C81.1144 57.7761 82.0871 57.863 82.9224 57.6894L96.2657 57.4813C97.5854 57.4813 98.6124 57.2628 99.3408 56.8292C100.071 56.3948 100.504 55.9163 100.644 55.3958C100.784 54.8748 100.791 54.2836 100.671 53.6227C100.547 52.9635 100.425 52.5025 100.304 52.242Z" fill="white"/>
</svg>
