<svg width="96" height="76" viewBox="0 0 96 76" fill="none" xmlns="http://www.w3.org/2000/svg">
<path fill-rule="evenodd" clip-rule="evenodd" d="M0.804199 8.98448C0.804199 4.20101 4.68196 0.323242 9.46543 0.323242H86.4542C91.2376 0.323242 95.1154 4.20101 95.1154 8.98448V66.726C95.1154 71.5095 91.2376 75.3873 86.4542 75.3873H9.46544C4.68197 75.3873 0.804199 71.5095 0.804199 66.726V8.98448ZM9.76317 8.02212L49.1293 37.7903L86.3089 8.02212H9.76317ZM87.4165 16.9978L51.6028 45.6725C50.2276 46.7736 48.2803 46.8005 46.8751 45.7379L8.50307 16.7215V66.726C8.50307 67.2575 8.93394 67.6884 9.46544 67.6884H86.4542C86.9857 67.6884 87.4165 67.2575 87.4165 66.726V16.9978Z" fill="white"/>
</svg>
