<svg width="192" height="44" viewBox="0 0 192 44" fill="none" xmlns="http://www.w3.org/2000/svg">
<path fill-rule="evenodd" clip-rule="evenodd" d="M21.7226 0.445251H170.277C187.797 0.445251 192 4.64795 192 22.1679C192 39.6878 187.797 43.8905 170.277 43.8905H21.7226C4.2027 43.8905 0 39.6878 0 22.1679C0 4.64795 4.20271 0.445251 21.7226 0.445251ZM104.304 14.835H101.649V33.4164H104.304V24.3044L113.51 33.4164H116.873L107.314 23.947L116.342 14.835H112.979L104.304 23.5897V14.835ZM121.662 14.835H119.006V33.4164H122.547L131.398 18.194H131.575V33.4164H134.231V14.835H130.69L121.839 30.0574H121.662V14.835ZM147.696 14.835H139.198V33.4164H147.696C149.466 33.4164 150.847 32.9518 151.838 32.0228C152.853 31.0937 153.361 29.7716 153.361 28.0564C153.361 27.1511 153.113 26.3293 152.617 25.5908C152.145 24.8523 151.508 24.3044 150.705 23.947C151.413 23.5897 151.968 23.0775 152.369 22.4105C152.794 21.7197 153.007 20.9216 153.007 20.0164C153.007 18.3965 152.523 17.1339 151.555 16.2286C150.587 15.2996 149.301 14.835 147.696 14.835ZM160.075 33.3449C160.878 33.6308 161.763 33.7737 162.731 33.7737C163.439 33.7737 164.1 33.6784 164.713 33.4878C165.327 33.3211 165.87 33.0948 166.342 32.8089C166.838 32.523 167.251 32.2134 167.581 31.8798C167.935 31.5463 168.207 31.2247 168.396 30.915H168.573L168.927 33.4164H171.051V21.0884C171.051 20.0878 170.886 19.1826 170.555 18.3726C170.249 17.5627 169.788 16.8718 169.175 16.3001C168.561 15.7284 167.817 15.2877 166.944 14.978C166.071 14.6445 165.079 14.4777 163.97 14.4777C162.2 14.4777 160.689 14.9184 159.438 15.7998C158.187 16.6574 157.337 17.9438 156.889 19.659H159.721C159.981 18.8491 160.465 18.2059 161.173 17.7294C161.881 17.2292 162.813 16.979 163.97 16.979C165.315 16.979 166.389 17.3483 167.192 18.0868C167.994 18.8253 168.396 19.8258 168.396 21.0884V22.339H163.262C162.152 22.339 161.161 22.4939 160.288 22.8036C159.438 23.0894 158.718 23.4944 158.128 24.0185C157.562 24.5188 157.125 25.1143 156.818 25.8052C156.511 26.496 156.358 27.2464 156.358 28.0564C156.358 28.8663 156.499 29.6167 156.783 30.3076C157.089 30.9984 157.514 31.6059 158.057 32.13C158.624 32.6302 159.296 33.0352 160.075 33.3449ZM30.9542 12.5879L30.0046 16.1613L26.2699 15.6143L23.6043 17.3364V32.0901H20.9489V14.835L26.2699 15.6143L30.9542 12.5879ZM32.9744 29.5888H32.6203V32.2688H32.9744C34.0838 32.2688 35.0043 32.0544 35.736 31.6256C36.4678 31.173 37.0461 30.4941 37.4709 29.5888C37.8958 28.6836 38.1908 27.5282 38.3561 26.1227C38.4383 25.5005 38.7515 25.0778 39.0791 24.6356C39.5042 24.062 39.9534 23.4557 39.9534 22.339L36.0112 18.6626H43.6234L46.2515 32.0901H48.907L46.2788 16.1613H33.3557L37.298 22.339C37.298 23.3601 37.1683 24.0583 37.0475 24.7091C36.9738 25.106 36.9034 25.4853 36.8676 25.9094C36.8119 26.5553 36.3755 26.8656 35.9781 27.1481C35.7013 27.3449 35.4435 27.5283 35.3466 27.8021C35.2353 28.1053 35.3181 28.5197 35.3947 28.903C35.4806 29.3328 35.5587 29.7236 35.3466 29.8747C35.1126 30.037 34.4755 29.8885 33.8899 29.752C33.5302 29.6681 33.1899 29.5888 32.9744 29.5888ZM58.043 31.84C59.0816 32.245 60.2264 32.4475 61.4774 32.4475C63.2477 32.4475 64.8055 32.0187 66.1509 31.1611C67.4963 30.2797 68.4759 28.9813 69.0896 27.2661H66.2571C65.195 29.0528 63.6017 29.9461 61.4774 29.9461C59.8723 29.9461 58.5151 29.4101 57.4057 28.3381C57.2754 28.2095 57.1523 28.0922 57.0363 27.9818C56.1855 27.1717 55.7185 26.7271 55.6354 24.8404H69.4437C69.4673 24.6974 69.4909 24.5307 69.5145 24.3401C69.5381 24.1733 69.5617 23.9828 69.5853 23.7684C69.5964 23.6676 69.8951 23.5616 70.2087 23.4503C70.5623 23.3248 70.9348 23.1926 70.9348 23.0537C70.9348 22.5416 70.4853 22.0187 70.0266 21.4849C69.653 21.0502 69.2733 20.6084 69.125 20.1593C68.9073 20.1815 68.7039 20.2027 68.5134 20.2225C66.1147 20.4719 65.7763 20.507 65.1202 19.7346C64.9573 19.5304 64.774 19.277 64.5754 19.0023C63.9395 18.1229 63.1457 17.0251 62.3544 16.6258C61.3158 16.0779 60.0884 15.8039 58.6722 15.8039C57.4684 15.8039 56.359 16.0183 55.344 16.4471C54.3291 16.8521 53.4439 17.4715 52.6886 18.3053C52.3403 18.6908 52.6223 18.8191 52.9676 18.9761C53.3477 19.1489 53.8045 19.3565 53.5819 19.9806C53.1806 21.1717 52.98 22.5534 52.98 24.1257C52.98 25.3362 53.1059 25.6476 53.3578 26.2704C53.433 26.4565 53.5195 26.6705 53.6173 26.9445C54.0422 28.1356 54.6205 29.1481 55.3522 29.9819C56.1075 30.7918 57.0044 31.4112 58.043 31.84ZM78.032 31.8043C79.0706 32.2331 80.2154 32.4475 81.4664 32.4475C82.6938 32.4475 83.8149 32.2569 84.8299 31.8757C85.8685 31.4708 86.7536 30.8871 87.4853 30.1248C88.2171 29.3625 88.7836 28.4334 89.1848 27.3376C89.2915 27.0399 89.384 26.825 89.4624 26.643C89.6786 26.1408 89.7867 25.8896 89.7867 24.8404C89.7867 24.1943 90.0166 23.5824 90.2337 23.0045C90.4969 22.3038 90.7413 21.6532 90.5343 21.0526C90.3244 20.4303 88.8491 20.2729 87.4625 20.125C86.3544 20.0067 85.3028 19.8945 84.9988 19.5559C84.3143 18.7936 83.4882 18.2219 82.5204 17.8407C81.5763 17.4358 80.5259 17.2333 79.3693 17.2333C78.5973 17.2333 78.3163 17.7444 78.0296 18.2656C77.8167 18.6528 77.6008 19.0455 77.1782 19.2384C76.2105 19.6911 75.3725 20.4176 74.6644 21.4182L73.1733 18.7657C73.4116 16.4487 73.9976 15.7898 74.9314 14.7399C75.0153 14.6456 75.1019 14.5482 75.1914 14.4461C76.2772 13.2073 77.8469 12.5879 79.9004 12.5879C81.3166 12.5879 82.5204 12.5046 83.5118 12.3378C84.5267 12.1472 85.3883 11.8733 86.0964 11.5159V19.0146C85.3883 19.3719 84.4677 9.6697 83.3347 9.90793C82.2254 10.1461 80.9626 10.2653 79.5463 10.2653C77.9885 10.2653 76.6313 10.5392 75.4747 11.0871C74.3417 11.635 73.3857 12.5046 72.6068 13.6957C71.8515 14.863 71.285 16.3638 70.9073 18.1981C70.723 19.0819 71.21 19.7377 71.7568 20.474C72.33 21.246 72.969 22.1064 72.969 23.411C72.969 24.8191 73.1083 25.2172 73.3868 26.0132C73.4523 26.2003 73.5255 26.4093 73.6063 26.6587C74.0312 27.9451 74.6095 29.0171 75.3412 29.8747C76.0965 30.7323 76.9935 31.3755 78.032 31.8043Z" fill="black" fill-opacity="0.2"/>
<path d="M147.696 22.6964C148.593 22.6964 149.289 22.4581 149.785 21.9817C150.28 21.4814 150.528 20.8263 150.528 20.0164C150.528 19.2064 150.28 18.5632 149.785 18.0868C149.289 17.5865 148.593 17.3364 147.696 17.3364H141.854V22.6964H147.696Z" fill="black" fill-opacity="0.2"/>
<path d="M147.696 30.915C148.593 30.915 149.313 30.6649 149.856 30.1646C150.422 29.6644 150.705 28.9616 150.705 28.0564C150.705 27.1511 150.422 26.4484 149.856 25.9481C149.313 25.4478 148.593 25.1977 147.696 25.1977H141.854V30.915H147.696Z" fill="black" fill-opacity="0.2"/>
<path d="M162.731 31.2724C163.604 31.2724 164.395 31.1414 165.103 30.8793C165.811 30.5934 166.401 30.2242 166.873 29.7716C167.369 29.2951 167.747 28.7472 168.006 28.1278C168.266 27.4846 168.396 26.8057 168.396 26.091V24.8404H163.262C161.846 24.8404 160.783 25.1262 160.075 25.698C159.367 26.2697 159.013 27.0558 159.013 28.0564C159.013 29.0569 159.344 29.843 160.005 30.4148C160.665 30.9865 161.574 31.2724 162.731 31.2724Z" fill="black" fill-opacity="0.2"/>
<path d="M81.4664 29.9461C83.1659 29.9461 84.5349 29.3982 85.5734 28.3024C86.612 27.1828 87.1313 26.9129 87.1313 24.8404C87.1313 22.7678 86.612 21.1837 85.5734 20.0878C84.5349 18.9682 80.5377 19.7346 78.8382 19.7346C77.1387 19.7346 78.3979 18.9682 77.3593 20.0878C76.3207 21.1837 75.8015 22.7678 75.8015 24.8404C75.8015 26.9129 76.3207 27.1828 77.3593 28.3024C78.3979 29.3982 79.7669 29.9461 81.4664 29.9461Z" fill="black" fill-opacity="0.2"/>
<path d="M68.2793 22.5177C68.0905 20.731 63.5346 20.6875 62.496 19.7346C61.4574 18.7817 60.1828 18.3053 58.6722 18.3053C57.1615 18.3053 55.8869 18.7817 54.8484 19.7346C53.8098 20.6875 57.1383 20.731 56.9495 22.5177H68.2793Z" fill="black" fill-opacity="0.2"/>
</svg>
