<svg width="105" height="105" viewBox="0 0 105 105" fill="none" xmlns="http://www.w3.org/2000/svg">
<path d="M52.5502 9.94484C66.4155 9.94484 68.0577 9.99761 73.5332 10.2474C78.5961 10.4785 81.3456 11.3244 83.1756 12.0354C85.5992 12.9774 87.3292 14.1028 89.1462 15.9198C90.9632 17.7368 92.0887 19.4668 93.0305 21.8904C93.7416 23.7204 94.5875 26.4699 94.8186 31.5326C95.0684 37.0083 95.1212 38.6505 95.1212 52.5158C95.1212 66.381 95.0684 68.0232 94.8186 73.4988C94.5875 78.5616 93.7416 81.3111 93.0305 83.1411C92.0887 85.5647 90.9632 87.2948 89.1462 89.1118C87.3292 90.9288 85.5992 92.0542 83.1756 92.996C81.3456 93.7071 78.5961 94.5531 73.5332 94.7841C68.0585 95.034 66.4163 95.0867 52.5502 95.0867C38.6842 95.0867 37.042 95.034 31.5673 94.7841C26.5044 94.5531 23.7549 93.7071 21.9251 92.996C19.5013 92.0542 17.7713 90.9288 15.9543 89.1118C14.1373 87.2948 13.0118 85.5647 12.07 83.1411C11.3589 81.3111 10.513 78.5616 10.2819 73.499C10.0321 68.0232 9.9793 66.381 9.9793 52.5158C9.9793 38.6505 10.0321 37.0083 10.2819 31.5328C10.513 26.4699 11.3589 23.7204 12.07 21.8904C13.0118 19.4668 14.1373 17.7368 15.9543 15.9198C17.7713 14.1028 19.5013 12.9774 21.9251 12.0354C23.7549 11.3244 26.5044 10.4785 31.5671 10.2474C37.0428 9.99761 38.685 9.94484 52.5502 9.94484ZM52.5502 0.588379C38.4475 0.588379 36.6794 0.648155 31.1408 0.900866C25.6135 1.15316 21.839 2.03085 18.5358 3.3146C15.1211 4.64164 12.2252 6.4172 9.33846 9.30399C6.45166 12.1908 4.6761 15.0866 3.34906 18.5013C2.06531 21.8045 1.18763 25.5791 0.935327 31.1063C0.682617 36.6447 0.623047 38.4131 0.623047 52.5158C0.623047 66.6185 0.682617 68.3868 0.935327 73.9252C1.18763 79.4525 2.06531 83.2271 3.34906 86.5302C4.6761 89.9447 6.45166 92.8408 9.33846 95.7276C12.2252 98.6144 15.1211 100.39 18.5358 101.717C21.839 103.001 25.6135 103.878 31.1408 104.131C36.6794 104.383 38.4475 104.443 52.5502 104.443C66.653 104.443 68.4213 104.383 73.9597 104.131C79.487 103.878 83.2615 103.001 86.5647 101.717C89.9794 100.39 92.8752 98.6144 95.762 95.7276C98.6488 92.8408 100.424 89.9449 101.751 86.5302C103.035 83.2271 103.913 79.4525 104.165 73.9252C104.418 68.3868 104.478 66.6185 104.478 52.5158C104.478 38.4131 104.418 36.6447 104.165 31.1063C103.913 25.5791 103.035 21.8045 101.751 18.5013C100.424 15.0866 98.6488 12.1908 95.762 9.30399C92.8752 6.4172 89.9794 4.64164 86.5647 3.3146C83.2615 2.03085 79.487 1.15316 73.9597 0.900866C68.4213 0.648155 66.653 0.588379 52.5502 0.588379ZM52.5502 25.8503C37.8234 25.8503 25.8848 37.7889 25.8848 52.5158C25.8848 67.2426 37.8234 79.1812 52.5502 79.1812C67.2771 79.1812 79.2157 67.2426 79.2157 52.5158C79.2157 37.7889 67.2771 25.8503 52.5502 25.8503ZM52.5502 69.825C42.9908 69.825 35.241 62.0753 35.241 52.5158C35.241 42.9563 42.9908 35.2066 52.5502 35.2066C62.1097 35.2066 69.8595 42.9563 69.8595 52.5158C69.8595 62.0753 62.1097 69.825 52.5502 69.825ZM86.5004 24.7968C86.5004 28.2383 83.7107 31.0282 80.2692 31.0282C76.8277 31.0282 74.0378 28.2383 74.0378 24.7968C74.0378 21.3553 76.8277 18.5656 80.2692 18.5656C83.7107 18.5656 86.5004 21.3553 86.5004 24.7968Z" fill="white"/>
</svg>
