<svg width="135" height="135" viewBox="0 0 135 135" fill="none" xmlns="http://www.w3.org/2000/svg">
<path d="M117.304 95.242C117.183 94.9807 117.07 94.764 116.965 94.5904C115.228 91.4621 111.909 87.6224 107.009 83.07L106.906 82.9658L106.854 82.9147L106.801 82.8623H106.749C104.525 80.7425 103.117 79.3172 102.527 78.5875C101.448 77.1974 101.207 75.7904 101.796 74.3647C102.213 73.2876 103.778 71.0128 106.487 67.5372C107.913 65.6953 109.042 64.2191 109.875 63.1069C115.887 55.1141 118.494 50.0066 117.694 47.7824L117.384 47.2626C117.175 46.9497 116.636 46.6634 115.769 46.4024C114.899 46.1418 113.787 46.0988 112.432 46.2724L97.4203 46.3761C97.1771 46.2899 96.8299 46.2979 96.3775 46.4024C95.9256 46.5068 95.6996 46.5592 95.6996 46.5592L95.4384 46.6897L95.231 46.8465C95.0571 46.9502 94.866 47.1326 94.6573 47.3933C94.4497 47.6531 94.2761 47.958 94.1374 48.3054C92.503 52.5101 90.6449 56.4194 88.5594 60.0332C87.2736 62.188 86.0927 64.0555 85.0143 65.6367C83.9374 67.2174 83.0338 68.382 82.3047 69.1285C81.5744 69.8757 80.9153 70.4744 80.3234 70.9266C79.7325 71.379 79.2813 71.5701 78.969 71.5002C78.6559 71.4303 78.361 71.3609 78.0819 71.2915C77.5957 70.9786 77.2046 70.5531 76.9098 70.0145C76.6137 69.4759 76.4143 68.798 76.3101 67.9814C76.2064 67.1643 76.145 66.4614 76.1275 65.8704C76.1113 65.2802 76.1187 64.4453 76.154 63.3681C76.1901 62.2904 76.2064 61.5613 76.2064 61.179C76.2064 59.8583 76.2321 58.4249 76.2838 56.8786C76.3364 55.3323 76.3789 54.1071 76.4145 53.2044C76.4499 52.3009 76.4663 51.345 76.4663 50.3372C76.4663 49.3295 76.405 48.5391 76.2838 47.9655C76.164 47.3926 75.9802 46.8365 75.7379 46.2974C75.4942 45.7588 75.1374 45.3422 74.6693 45.0464C74.2003 44.751 73.6172 44.5166 72.9233 44.3425C71.0813 43.9257 68.7359 43.7002 65.8859 43.6651C59.4228 43.5958 55.2699 44.0131 53.4282 44.9166C52.6985 45.2984 52.0381 45.82 51.4477 46.4798C50.8221 47.2445 50.7348 47.6619 51.1865 47.7305C53.2717 48.0429 54.748 48.7902 55.6168 49.9715L55.9299 50.5976C56.1735 51.0492 56.4166 51.8489 56.66 52.9954C56.903 54.1419 57.0598 55.4102 57.1288 56.7996C57.3023 59.3367 57.3023 61.5085 57.1288 63.3152C56.9549 65.1226 56.7905 66.5296 56.6337 67.5374C56.4769 68.5452 56.2425 69.3618 55.9299 69.9871C55.6168 70.6126 55.4085 70.9949 55.3041 71.1336C55.1998 71.2724 55.1129 71.3598 55.0439 71.3941C54.5923 71.5672 54.1225 71.6554 53.6363 71.6554C53.1494 71.6554 52.559 71.4119 51.8642 70.9251C51.1695 70.4384 50.4485 69.7698 49.7013 68.9184C48.954 68.0667 48.1113 66.8765 47.1727 65.3477C46.2349 63.8189 45.2618 62.012 44.254 59.9271L43.4202 58.4151C42.899 57.4424 42.187 56.026 41.2835 54.1673C40.3794 52.3079 39.5803 50.5092 38.8856 48.7717C38.608 48.042 38.1908 47.4864 37.6349 47.1041L37.374 46.9473C37.2006 46.8086 36.9221 46.6612 36.5402 46.5042C36.1577 46.3474 35.7586 46.2349 35.3413 46.1658L21.0593 46.2695C19.5998 46.2695 18.6096 46.6001 18.0882 47.2604L17.8795 47.5728C17.7752 47.7468 17.7227 48.0247 17.7227 48.4071C17.7227 48.7894 17.8269 49.2586 18.0356 49.8142C20.1205 54.7143 22.3878 59.44 24.8375 63.9921C27.2872 68.5443 29.4159 72.2111 31.2224 74.9894C33.0293 77.7698 34.871 80.3938 36.7476 82.8603C38.6242 85.3277 39.8664 86.9089 40.4742 87.6036C41.0827 88.2995 41.5606 88.8198 41.908 89.1672L43.2114 90.418C44.0454 91.2522 45.27 92.2512 46.8859 93.415C48.5022 94.5796 50.2915 95.7261 52.2548 96.8564C54.2185 97.9849 56.503 98.9057 59.1095 99.6179C61.7157 100.331 64.2522 100.617 66.7196 100.479H72.714C73.9298 100.374 74.8508 99.9916 75.4768 99.3318L75.6842 99.0706C75.8237 98.8632 75.9542 98.541 76.0747 98.1074C76.1967 97.673 76.2573 97.1945 76.2573 96.674C76.2217 95.1801 76.3354 93.8337 76.5954 92.6349C76.8552 91.4365 77.1513 90.533 77.4825 89.9245C77.8135 89.3166 78.187 88.8036 78.6027 88.3877C79.0194 87.9709 79.3162 87.7184 79.4904 87.6315C79.6635 87.544 79.8017 87.4847 79.9059 87.4491C80.7399 87.1712 81.7214 87.4403 82.8518 88.2577C83.9814 89.0743 85.0408 90.0826 86.0318 91.281C87.0222 92.4805 88.2122 93.8262 89.6019 95.3201C90.9925 96.8146 92.2084 97.9255 93.2505 98.6563L94.2926 99.2818C94.9885 99.6992 95.892 100.081 97.0042 100.429C98.1144 100.776 99.0871 100.863 99.9224 100.689L113.266 100.481C114.585 100.481 115.612 100.263 116.341 99.8292C117.071 99.3948 117.504 98.9163 117.644 98.3958C117.784 97.8748 117.791 97.2836 117.671 96.6227C117.547 95.9635 117.425 95.5025 117.304 95.242Z" fill="white"/>
</svg>
