<svg width="135" height="135" viewBox="0 0 135 135" fill="none" xmlns="http://www.w3.org/2000/svg">
<path d="M67.5502 24.9448C81.4155 24.9448 83.0577 24.9976 88.5332 25.2474C93.5961 25.4785 96.3456 26.3244 98.1756 27.0354C100.599 27.9774 102.329 29.1028 104.146 30.9198C105.963 32.7368 107.089 34.4668 108.03 36.8904C108.742 38.7204 109.588 41.4699 109.819 46.5326C110.068 52.0083 110.121 53.6505 110.121 67.5158C110.121 81.381 110.068 83.0232 109.819 88.4988C109.588 93.5616 108.742 96.3111 108.03 98.1411C107.089 100.565 105.963 102.295 104.146 104.112C102.329 105.929 100.599 107.054 98.1756 107.996C96.3456 108.707 93.5961 109.553 88.5332 109.784C83.0585 110.034 81.4163 110.087 67.5502 110.087C53.6842 110.087 52.042 110.034 46.5673 109.784C41.5044 109.553 38.7549 108.707 36.9251 107.996C34.5013 107.054 32.7713 105.929 30.9543 104.112C29.1373 102.295 28.0118 100.565 27.07 98.1411C26.3589 96.3111 25.513 93.5616 25.2819 88.499C25.0321 83.0232 24.9793 81.381 24.9793 67.5158C24.9793 53.6505 25.0321 52.0083 25.2819 46.5328C25.513 41.4699 26.3589 38.7204 27.07 36.8904C28.0118 34.4668 29.1373 32.7368 30.9543 30.9198C32.7713 29.1028 34.5013 27.9774 36.9251 27.0354C38.7549 26.3244 41.5044 25.4785 46.5671 25.2474C52.0428 24.9976 53.685 24.9448 67.5502 24.9448ZM67.5502 15.5884C53.4475 15.5884 51.6794 15.6482 46.1408 15.9009C40.6135 16.1532 36.839 17.0308 33.5358 18.3146C30.1211 19.6416 27.2252 21.4172 24.3385 24.304C21.4517 27.1908 19.6761 30.0866 18.3491 33.5013C17.0653 36.8045 16.1876 40.5791 15.9353 46.1063C15.6826 51.6447 15.623 53.4131 15.623 67.5158C15.623 81.6185 15.6826 83.3868 15.9353 88.9252C16.1876 94.4525 17.0653 98.2271 18.3491 101.53C19.6761 104.945 21.4517 107.841 24.3385 110.728C27.2252 113.614 30.1211 115.39 33.5358 116.717C36.839 118.001 40.6135 118.878 46.1408 119.131C51.6794 119.383 53.4475 119.443 67.5502 119.443C81.653 119.443 83.4213 119.383 88.9597 119.131C94.487 118.878 98.2615 118.001 101.565 116.717C104.979 115.39 107.875 113.614 110.762 110.728C113.649 107.841 115.424 104.945 116.751 101.53C118.035 98.2271 118.913 94.4525 119.165 88.9252C119.418 83.3868 119.478 81.6185 119.478 67.5158C119.478 53.4131 119.418 51.6447 119.165 46.1063C118.913 40.5791 118.035 36.8045 116.751 33.5013C115.424 30.0866 113.649 27.1908 110.762 24.304C107.875 21.4172 104.979 19.6416 101.565 18.3146C98.2615 17.0308 94.487 16.1532 88.9597 15.9009C83.4213 15.6482 81.653 15.5884 67.5502 15.5884ZM67.5502 40.8503C52.8234 40.8503 40.8848 52.7889 40.8848 67.5158C40.8848 82.2426 52.8234 94.1812 67.5502 94.1812C82.2771 94.1812 94.2157 82.2426 94.2157 67.5158C94.2157 52.7889 82.2771 40.8503 67.5502 40.8503ZM67.5502 84.825C57.9908 84.825 50.241 77.0753 50.241 67.5158C50.241 57.9563 57.9908 50.2066 67.5502 50.2066C77.1097 50.2066 84.8595 57.9563 84.8595 67.5158C84.8595 77.0753 77.1097 84.825 67.5502 84.825ZM101.5 39.7968C101.5 43.2383 98.7107 46.0282 95.2692 46.0282C91.8277 46.0282 89.0378 43.2383 89.0378 39.7968C89.0378 36.3553 91.8277 33.5656 95.2692 33.5656C98.7107 33.5656 101.5 36.3553 101.5 39.7968Z" fill="white"/>
</svg>
