<svg width="264" height="67" viewBox="0 0 264 67" fill="none" xmlns="http://www.w3.org/2000/svg">
<path d="M6.6164 24.0147H0L10.0815 0H18.0382L28.1054 24.0147H21.489L14.1739 5.48774H13.9458L6.6164 24.0147ZM6.20287 14.5753H21.8313V18.5387H6.20287V14.5753Z" fill="white"/>
<path d="M40.3828 24.3665C38.1394 24.3665 36.2096 23.9756 34.5935 23.1939C32.9869 22.4044 31.7511 21.3099 30.886 19.9106C30.0305 18.5114 29.6027 16.901 29.6027 15.0796C29.6027 13.2347 30.0352 11.6165 30.9003 10.225C31.7749 8.82572 33.0154 7.73521 34.622 6.95348C36.2286 6.16393 38.1394 5.76916 40.3543 5.76916C42.2651 5.76916 43.9382 6.05449 45.3737 6.62516C46.8091 7.19582 47.9451 7.99709 48.7817 9.02897C49.6182 10.0609 50.0793 11.2725 50.1648 12.664H44.4325C44.2709 11.765 43.8431 11.0419 43.1492 10.4947C42.4647 9.93969 41.5664 9.66217 40.4541 9.66217C39.513 9.66217 38.6907 9.87324 37.9873 10.2954C37.2933 10.7097 36.7514 11.3155 36.3617 12.1129C35.9719 12.9103 35.777 13.8757 35.777 15.0092C35.777 16.1583 35.9672 17.1355 36.3474 17.9407C36.7372 18.7459 37.2838 19.3595 37.9873 19.7817C38.6907 20.2038 39.513 20.4149 40.4541 20.4149C41.1481 20.4149 41.7708 20.2976 42.3221 20.0631C42.883 19.8286 43.3441 19.4885 43.7053 19.0429C44.0761 18.5895 44.3185 18.0462 44.4325 17.413H50.1648C50.0698 18.7889 49.6135 20.0005 48.7959 21.0481C47.9879 22.0878 46.8709 22.9008 45.445 23.4871C44.019 24.0734 42.3316 24.3665 40.3828 24.3665Z" fill="white"/>
<path d="M63.9502 24.3665C61.7067 24.3665 59.7769 23.9756 58.1609 23.1939C56.5543 22.4044 55.3185 21.3099 54.4534 19.9106C53.5978 18.5114 53.17 16.901 53.17 15.0796C53.17 13.2347 53.6026 11.6165 54.4676 10.225C55.3422 8.82572 56.5828 7.73521 58.1894 6.95348C59.7959 6.16393 61.7067 5.76916 63.9217 5.76916C65.8325 5.76916 67.5056 6.05449 68.941 6.62516C70.3765 7.19582 71.5125 7.99709 72.349 9.02897C73.1856 10.0609 73.6467 11.2725 73.7322 12.664H67.9999C67.8383 11.765 67.4105 11.0419 66.7165 10.4947C66.0321 9.93969 65.1337 9.66217 64.0215 9.66217C63.0804 9.66217 62.2581 9.87324 61.5546 10.2954C60.8607 10.7097 60.3188 11.3155 59.929 12.1129C59.5393 12.9103 59.3444 13.8757 59.3444 15.0092C59.3444 16.1583 59.5345 17.1355 59.9148 17.9407C60.3045 18.7459 60.8511 19.3595 61.5546 19.7817C62.2581 20.2038 63.0804 20.4149 64.0215 20.4149C64.7155 20.4149 65.3381 20.2976 65.8895 20.0631C66.4504 19.8286 66.9114 19.4885 67.2727 19.0429C67.6434 18.5895 67.8858 18.0462 67.9999 17.413H73.7322C73.6371 18.7889 73.1808 20.0005 72.3633 21.0481C71.5553 22.0878 70.4383 22.9008 69.0123 23.4871C67.5864 24.0734 65.899 24.3665 63.9502 24.3665Z" fill="white"/>
<path d="M87.5176 24.3665C85.3026 24.3665 83.3871 23.9795 81.771 23.2056C80.1644 22.4239 78.9238 21.3373 78.0493 19.9458C77.1747 18.5465 76.7374 16.9244 76.7374 15.0796C76.7374 13.219 77.1747 11.593 78.0493 10.2016C78.9238 8.80227 80.1644 7.71567 81.771 6.94176C83.3871 6.16003 85.3026 5.76916 87.5176 5.76916C89.7325 5.76916 91.6433 6.16003 93.2499 6.94176C94.8659 7.71567 96.1113 8.80227 96.9858 10.2016C97.8604 11.593 98.2977 13.219 98.2977 15.0796C98.2977 16.9244 97.8604 18.5465 96.9858 19.9458C96.1113 21.3373 94.8659 22.4239 93.2499 23.2056C91.6433 23.9795 89.7325 24.3665 87.5176 24.3665ZM87.5461 20.4969C88.5537 20.4969 89.395 20.2624 90.07 19.7934C90.7449 19.3165 91.2535 18.6677 91.5958 17.8469C91.9475 17.0261 92.1234 16.0919 92.1234 15.0444C92.1234 13.9969 91.9475 13.0627 91.5958 12.2419C91.2535 11.4211 90.7449 10.7722 90.07 10.2954C89.395 9.81852 88.5537 9.58009 87.5461 9.58009C86.5289 9.58009 85.6733 9.81852 84.9794 10.2954C84.2949 10.7722 83.7768 11.4211 83.4251 12.2419C83.0829 13.0627 82.9117 13.9969 82.9117 15.0444C82.9117 16.0919 83.0829 17.0261 83.4251 17.8469C83.7768 18.6677 84.2949 19.3165 84.9794 19.7934C85.6733 20.2624 86.5289 20.4969 87.5461 20.4969Z" fill="white"/>
<path d="M121.398 6.00368V20.5673H124.892V29.8073H118.988V24.0147H102.248V6.00368H108.051V20.0865H115.666V6.00368H121.398Z" fill="white"/>
<path d="M134.442 17.4247L142.327 6.00368H148.316V24.0147H142.527V12.5585L134.67 24.0147H128.638V6.00368H134.442V17.4247Z" fill="white"/>
<path d="M159.432 24.3548C158.034 24.3548 156.789 24.1554 155.696 23.7568C154.602 23.3503 153.737 22.7522 153.1 21.9627C152.473 21.1653 152.159 20.1725 152.159 18.9843C152.159 17.9837 152.383 17.1433 152.83 16.4632C153.276 15.7831 153.885 15.2359 154.655 14.8216C155.425 14.4073 156.299 14.0946 157.278 13.8835C158.267 13.6724 159.303 13.5239 160.387 13.4379C161.661 13.3285 162.688 13.2269 163.467 13.1331C164.247 13.0314 164.812 12.8829 165.164 12.6875C165.516 12.492 165.692 12.2028 165.692 11.8197V11.7494C165.692 11.0067 165.406 10.4322 164.836 10.0257C164.275 9.61918 163.477 9.41593 162.44 9.41593C161.347 9.41593 160.477 9.61527 159.831 10.014C159.184 10.4048 158.757 10.8973 158.548 11.4914L152.929 11.1162C153.215 10.0218 153.775 9.07588 154.612 8.27851C155.449 7.47333 156.527 6.85577 157.849 6.42581C159.18 5.98805 160.72 5.76916 162.469 5.76916C163.686 5.76916 164.85 5.88642 165.962 6.12094C167.084 6.35546 168.078 6.71896 168.943 7.21145C169.817 7.70394 170.507 8.33714 171.01 9.11106C171.514 9.87715 171.766 10.7957 171.766 11.8666V24.0147H166.005V21.5171H165.834C165.482 22.0799 165.012 22.5763 164.422 23.0063C163.833 23.4284 163.125 23.7607 162.298 24.003C161.471 24.2375 160.515 24.3548 159.432 24.3548ZM161.171 20.9074C162.065 20.9074 162.854 20.7627 163.538 20.4735C164.223 20.1764 164.76 19.7777 165.15 19.2774C165.539 18.7771 165.734 18.2104 165.734 17.5772V15.6659C165.544 15.7675 165.283 15.8613 164.95 15.9473C164.627 16.0255 164.261 16.0997 163.852 16.1701C163.443 16.2326 163.035 16.2912 162.626 16.346C162.217 16.3929 161.846 16.4359 161.514 16.4749C160.801 16.5609 160.178 16.6977 159.646 16.8854C159.113 17.073 158.7 17.327 158.405 17.6475C158.11 17.9602 157.963 18.3511 157.963 18.8201C157.963 19.5002 158.262 20.0201 158.861 20.3797C159.47 20.7315 160.24 20.9074 161.171 20.9074Z" fill="white"/>
<path d="M195.629 6.00368V20.5673H199.123V29.8073H193.219V24.0147H176.479V6.00368H182.282V20.0865H189.897V6.00368H195.629Z" fill="white"/>
<path d="M208.673 17.4247L216.559 6.00368H222.548V24.0147H216.758V12.5585L208.901 24.0147H202.87V6.00368H208.673V17.4247Z" fill="white"/>
<path d="M240.251 24.0147V9.92014H236.144C235.032 9.92014 234.186 10.1312 233.606 10.5533C233.026 10.9755 232.741 11.4758 232.75 12.0543C232.741 12.6406 233.017 13.137 233.577 13.5435C234.148 13.9421 234.984 14.1415 236.087 14.1415H242.276V17.5186H236.087C234.214 17.5186 232.593 17.284 231.225 16.815C229.856 16.346 228.8 15.6932 228.059 14.8568C227.317 14.0125 226.951 13.0314 226.961 11.9136C226.951 10.741 227.317 9.71299 228.059 8.82963C228.8 7.93846 229.86 7.24663 231.239 6.75414C232.627 6.25383 234.262 6.00368 236.144 6.00368H245.912V24.0147H240.251ZM226.334 24.0147L232.422 14.634H238.226L232.151 24.0147H226.334Z" fill="white"/>
<path d="M0 59.2707V41.2597H9.33994C12.0397 41.2597 14.1739 41.6818 15.7424 42.5261C17.311 43.3703 18.0953 44.5703 18.0953 46.1259C18.0953 47.1031 17.6532 47.9161 16.7691 48.5649C15.885 49.2138 14.6587 49.6515 13.0902 49.8782C14.4021 49.9564 15.519 50.2027 16.4412 50.617C17.3728 51.0235 18.081 51.5511 18.5658 52.2C19.0602 52.8488 19.3073 53.568 19.3073 54.3575C19.3073 55.3816 18.9746 56.2611 18.3092 56.9959C17.6532 57.7307 16.6883 58.2935 15.4145 58.6844C14.1501 59.0753 12.6054 59.2707 10.7802 59.2707H0ZM5.661 55.5301H10.7802C11.6262 55.5301 12.2869 55.366 12.7622 55.0376C13.247 54.7015 13.4895 54.2442 13.4895 53.6657C13.4895 53.0247 13.247 52.5205 12.7622 52.1531C12.2869 51.7857 11.6262 51.6019 10.7802 51.6019H5.661V55.5301ZM5.661 48.6705H9.46829C10.0767 48.6705 10.5948 48.6001 11.0226 48.4594C11.4598 48.3109 11.7926 48.0998 12.0207 47.8262C12.2584 47.5526 12.3772 47.2282 12.3772 46.8529C12.3772 46.2979 12.1063 45.8641 11.5644 45.5514C11.0226 45.2387 10.2811 45.0823 9.33994 45.0823H5.661V48.6705Z" fill="white"/>
<path d="M26.9433 46.7943H33.4884C36.3878 46.7943 38.6503 47.365 40.2759 48.5063C41.9015 49.6398 42.7143 51.1564 42.7143 53.056C42.7143 54.2911 42.3483 55.3777 41.6163 56.3158C40.8843 57.246 39.8291 57.973 38.4507 58.4968C37.0723 59.0127 35.4182 59.2707 33.4884 59.2707H23.136V41.2597H28.9396V55.3425H33.4884C34.5056 55.3425 35.3421 55.1315 35.9981 54.7093C36.654 54.2872 36.9867 53.7478 36.9962 53.0911C36.9867 52.3954 36.654 51.8286 35.9981 51.3909C35.3421 50.9453 34.5056 50.7225 33.4884 50.7225H26.9433V46.7943ZM45.0671 59.2707V41.2597H51.1416V59.2707H45.0671Z" fill="white"/>
<path d="M55.997 59.2707V41.2597H75.1475V59.2707H69.3438V45.1879H61.7293V59.2707H55.997Z" fill="white"/>
<path d="M82.9616 66.0248C82.1916 66.0248 81.4692 65.974 80.7942 65.8724C80.1288 65.7786 79.5774 65.6574 79.1401 65.5089L80.509 61.7801C81.222 61.9599 81.8637 62.0576 82.4341 62.0732C83.0139 62.0888 83.513 61.9794 83.9313 61.7449C84.3591 61.5104 84.7061 61.1117 84.9722 60.5488L85.3287 59.7867L77.4718 41.2597H83.86L88.3945 54.4865H88.6226L93.2 41.2597H99.631L91.1181 61.2172C90.7093 62.1866 90.1532 63.0308 89.4497 63.75C88.7557 64.477 87.8764 65.036 86.8117 65.4268C85.747 65.8255 84.4636 66.0248 82.9616 66.0248Z" fill="white"/>
<path d="M111.93 59.6225C109.686 59.6225 107.757 59.2316 106.14 58.4499C104.534 57.6603 103.298 56.5659 102.433 55.1666C101.577 53.7673 101.15 52.157 101.15 50.3355C101.15 48.4907 101.582 46.8725 102.447 45.481C103.322 44.0817 104.562 42.9912 106.169 42.2095C107.776 41.4199 109.686 41.0251 111.901 41.0251C113.812 41.0251 115.485 41.3105 116.921 41.8811C118.356 42.4518 119.492 43.2531 120.329 44.285C121.165 45.3168 121.626 46.5285 121.712 47.92H115.979C115.818 47.021 115.39 46.2979 114.696 45.7507C114.012 45.1957 113.113 44.9182 112.001 44.9182C111.06 44.9182 110.238 45.1292 109.534 45.5514C108.84 45.9657 108.298 46.5715 107.909 47.3689C107.519 48.1662 107.324 49.1317 107.324 50.2652C107.324 51.4143 107.514 52.3915 107.894 53.1967C108.284 54.0019 108.831 54.6155 109.534 55.0376C110.238 55.4598 111.06 55.6708 112.001 55.6708C112.695 55.6708 113.318 55.5536 113.869 55.3191C114.43 55.0846 114.891 54.7445 115.252 54.2989C115.623 53.8455 115.865 53.3022 115.979 52.669H121.712C121.617 54.0448 121.16 55.2565 120.343 56.304C119.535 57.3437 118.418 58.1567 116.992 58.743C115.566 59.3293 113.879 59.6225 111.93 59.6225Z" fill="white"/>
<path d="M125.601 59.2707V41.2597H131.676V48.2483H133.387L139.347 41.2597H146.477L138.734 50.1948L146.562 59.2707H139.347L133.943 52.8801H131.676V59.2707H125.601Z" fill="white"/>
<path d="M164.373 48.2718V52.2H152.936V48.2718H164.373ZM154.933 41.2597V59.2707H149.129V41.2597H154.933ZM168.18 41.2597V59.2707H162.419V41.2597H168.18Z" fill="white"/>
<path d="M178.696 52.6807L186.582 41.2597H192.571V59.2707H186.781V47.8145L178.924 59.2707H172.893V41.2597H178.696V52.6807Z" fill="white"/>
<path d="M197.44 59.2707V41.2597H203.515V48.2483H205.226L211.186 41.2597H218.316L210.573 50.1948L218.402 59.2707H211.186L205.782 52.8801H203.515V59.2707H197.44Z" fill="white"/>
<path d="M229.963 59.6225C227.748 59.6225 225.832 59.2355 224.216 58.4616C222.609 57.6799 221.369 56.5933 220.494 55.2018C219.62 53.8025 219.182 52.1804 219.182 50.3355C219.182 48.475 219.62 46.849 220.494 45.4576C221.369 44.0583 222.609 42.9717 224.216 42.1977C225.832 41.416 227.748 41.0251 229.963 41.0251C232.178 41.0251 234.088 41.416 235.695 42.1977C237.311 42.9717 238.556 44.0583 239.431 45.4576C240.306 46.849 240.743 48.475 240.743 50.3355C240.743 52.1804 240.306 53.8025 239.431 55.2018C238.556 56.5933 237.311 57.6799 235.695 58.4616C234.088 59.2355 232.178 59.6225 229.963 59.6225ZM229.991 55.7529C230.999 55.7529 231.84 55.5184 232.515 55.0494C233.19 54.5725 233.699 53.9237 234.041 53.1029C234.393 52.2821 234.568 51.3479 234.568 50.3004C234.568 49.2529 234.393 48.3187 234.041 47.4979C233.699 46.6771 233.19 46.0282 232.515 45.5514C231.84 45.0745 230.999 44.8361 229.991 44.8361C228.974 44.8361 228.118 45.0745 227.424 45.5514C226.74 46.0282 226.222 46.6771 225.87 47.4979C225.528 48.3187 225.357 49.2529 225.357 50.3004C225.357 51.3479 225.528 52.2821 225.87 53.1029C226.222 53.9237 226.74 54.5725 227.424 55.0494C228.118 55.5184 228.974 55.7529 229.991 55.7529Z" fill="white"/>
<path d="M244.693 59.2707V41.2597H254.033C256.732 41.2597 258.867 41.6818 260.435 42.5261C262.004 43.3703 262.788 44.5703 262.788 46.1259C262.788 47.1031 262.346 47.9161 261.462 48.5649C260.578 49.2138 259.351 49.6515 257.783 49.8782C259.095 49.9564 260.212 50.2027 261.134 50.617C262.065 51.0235 262.774 51.5511 263.259 52.2C263.753 52.8488 264 53.568 264 54.3575C264 55.3816 263.667 56.2611 263.002 56.9959C262.346 57.7307 261.381 58.2935 260.107 58.6844C258.843 59.0753 257.298 59.2707 255.473 59.2707H244.693ZM250.354 55.5301H255.473C256.319 55.5301 256.98 55.366 257.455 55.0376C257.94 54.7015 258.182 54.2442 258.182 53.6657C258.182 53.0247 257.94 52.5205 257.455 52.1531C256.98 51.7857 256.319 51.6019 255.473 51.6019H250.354V55.5301ZM250.354 48.6705H254.161C254.769 48.6705 255.287 48.6001 255.715 48.4594C256.153 48.3109 256.485 48.0998 256.713 47.8262C256.951 47.5526 257.07 47.2282 257.07 46.8529C257.07 46.2979 256.799 45.8641 256.257 45.5514C255.715 45.2387 254.974 45.0823 254.033 45.0823H250.354V48.6705Z" fill="white"/>
</svg>
