<svg width="613" height="37" viewBox="0 0 613 37" fill="none" xmlns="http://www.w3.org/2000/svg">
<path d="M7.74128 28.1908H0L11.7954 0.0932617H21.105L32.8838 28.1908H25.1425L16.5837 6.51399H16.3167L7.74128 28.1908ZM7.25745 17.1466H25.5429V21.7838H7.25745V17.1466Z" fill="white"/>
<path d="M47.2485 28.6024C44.6236 28.6024 42.3657 28.1451 40.4749 27.2305C38.5952 26.3067 37.1492 25.0262 36.1371 23.389C35.1361 21.7518 34.6355 19.8677 34.6355 17.7366C34.6355 15.578 35.1416 13.6847 36.1538 12.0567C37.177 10.4195 38.6285 9.14357 40.5082 8.22893C42.388 7.30515 44.6236 6.84326 47.2151 6.84326C49.4508 6.84326 51.4083 7.1771 53.0878 7.84479C54.7673 8.51247 56.0965 9.44997 57.0752 10.6573C58.054 11.8646 58.5935 13.2823 58.6936 14.9103H51.9867C51.7976 13.8585 51.2971 13.0125 50.4852 12.3722C49.6843 11.7228 48.6332 11.3981 47.3319 11.3981C46.2308 11.3981 45.2687 11.6451 44.4456 12.139C43.6337 12.6238 42.9997 13.3326 42.5437 14.2655C42.0876 15.1984 41.8596 16.328 41.8596 17.6542C41.8596 18.9987 42.0821 20.142 42.527 21.0841C42.983 22.0262 43.6226 22.7442 44.4456 23.2381C45.2687 23.732 46.2308 23.9789 47.3319 23.9789C48.1439 23.9789 48.8724 23.8417 49.5175 23.5674C50.1737 23.293 50.7132 22.8951 51.1358 22.3738C51.5696 21.8433 51.8532 21.2076 51.9867 20.4667H58.6936C58.5824 22.0765 58.0485 23.4942 57.0919 24.7198C56.1465 25.9363 54.8396 26.8875 53.1712 27.5734C51.5029 28.2594 49.5286 28.6024 47.2485 28.6024Z" fill="white"/>
<path d="M74.8226 28.6024C72.1977 28.6024 69.9398 28.1451 68.049 27.2305C66.1693 26.3067 64.7234 25.0262 63.7112 23.389C62.7102 21.7518 62.2097 19.8677 62.2097 17.7366C62.2097 15.578 62.7158 13.6847 63.7279 12.0567C64.7512 10.4195 66.2027 9.14357 68.0824 8.22893C69.9621 7.30515 72.1977 6.84326 74.7893 6.84326C77.0249 6.84326 78.9825 7.1771 80.662 7.84479C82.3415 8.51247 83.6706 9.44997 84.6494 10.6573C85.6282 11.8646 86.1676 13.2823 86.2677 14.9103H79.5608C79.3717 13.8585 78.8712 13.0125 78.0593 12.3722C77.2585 11.7228 76.2074 11.3981 74.9061 11.3981C73.8049 11.3981 72.8428 11.6451 72.0198 12.139C71.2078 12.6238 70.5738 13.3326 70.1178 14.2655C69.6618 15.1984 69.4338 16.328 69.4338 17.6542C69.4338 18.9987 69.6562 20.142 70.1011 21.0841C70.5571 22.0262 71.1967 22.7442 72.0198 23.2381C72.8428 23.732 73.8049 23.9789 74.9061 23.9789C75.718 23.9789 76.4465 23.8417 77.0916 23.5674C77.7479 23.293 78.2873 22.8951 78.71 22.3738C79.1437 21.8433 79.4274 21.2076 79.5608 20.4667H86.2677C86.1565 22.0765 85.6226 23.4942 84.6661 24.7198C83.7207 25.9363 82.4138 26.8875 80.7454 27.5734C79.077 28.2594 77.1028 28.6024 74.8226 28.6024Z" fill="white"/>
<path d="M102.397 28.6024C99.8052 28.6024 97.564 28.1497 95.6732 27.2442C93.7935 26.3295 92.342 25.0582 91.3187 23.4302C90.2955 21.793 89.7838 19.8951 89.7838 17.7366C89.7838 15.5597 90.2955 13.6573 91.3187 12.0292C92.342 10.392 93.7935 9.1207 95.6732 8.21521C97.564 7.30058 99.8052 6.84326 102.397 6.84326C104.988 6.84326 107.224 7.30058 109.104 8.21521C110.994 9.1207 112.452 10.392 113.475 12.0292C114.498 13.6573 115.01 15.5597 115.01 17.7366C115.01 19.8951 114.498 21.793 113.475 23.4302C112.452 25.0582 110.994 26.3295 109.104 27.2442C107.224 28.1497 104.988 28.6024 102.397 28.6024ZM102.43 24.075C103.609 24.075 104.593 23.8006 105.383 23.2518C106.173 22.6939 106.768 21.9347 107.168 20.9744C107.58 20.014 107.786 18.921 107.786 17.6954C107.786 16.4698 107.58 15.3768 107.168 14.4164C106.768 13.4561 106.173 12.6969 105.383 12.139C104.593 11.5811 103.609 11.3021 102.43 11.3021C101.24 11.3021 100.239 11.5811 99.427 12.139C98.6262 12.6969 98.02 13.4561 97.6085 14.4164C97.2081 15.3768 97.0079 16.4698 97.0079 17.6954C97.0079 18.921 97.2081 20.014 97.6085 20.9744C98.02 21.9347 98.6262 22.6939 99.427 23.2518C100.239 23.8006 101.24 24.075 102.43 24.075Z" fill="white"/>
<path d="M142.037 7.11765V24.1573H146.125V34.9683H139.218V28.1908H119.631V7.11765H126.421V23.5948H135.331V7.11765H142.037Z" fill="white"/>
<path d="M157.299 20.4805L166.525 7.11765H173.532V28.1908H166.759V14.7869L157.566 28.1908H150.509V7.11765H157.299V20.4805Z" fill="white"/>
<path d="M186.537 28.5887C184.902 28.5887 183.445 28.3555 182.166 27.889C180.887 27.4134 179.875 26.7137 179.13 25.7899C178.396 24.857 178.029 23.6954 178.029 22.3052C178.029 21.1344 178.29 20.1512 178.813 19.3555C179.335 18.5597 180.047 17.9195 180.948 17.4347C181.849 16.95 182.872 16.5841 184.018 16.3372C185.175 16.0902 186.387 15.9164 187.655 15.8158C189.146 15.6878 190.347 15.5689 191.259 15.4591C192.171 15.3402 192.833 15.1664 193.244 14.9378C193.656 14.7091 193.861 14.3707 193.861 13.9225V13.8402C193.861 12.9713 193.528 12.2991 192.86 11.8234C192.204 11.3478 191.27 11.11 190.058 11.11C188.778 11.11 187.761 11.3433 187.004 11.8097C186.248 12.267 185.748 12.8433 185.503 13.5384L178.929 13.0994C179.263 11.8189 179.919 10.7122 180.898 9.77924C181.877 8.83716 183.139 8.1146 184.685 7.61155C186.243 7.09936 188.044 6.84326 190.091 6.84326C191.515 6.84326 192.877 6.98046 194.178 7.25485C195.491 7.52924 196.653 7.95454 197.665 8.53076C198.689 9.10698 199.495 9.84784 200.085 10.7533C200.674 11.6497 200.969 12.7244 200.969 13.9774V28.1908H194.229V25.2686H194.028C193.617 25.9271 193.066 26.5079 192.377 27.0109C191.687 27.5048 190.858 27.8936 189.891 28.1771C188.923 28.4515 187.805 28.5887 186.537 28.5887ZM188.573 24.5552C189.618 24.5552 190.541 24.3859 191.342 24.0475C192.143 23.7 192.771 23.2335 193.227 22.6481C193.684 22.0628 193.911 21.3997 193.911 20.6588V18.4225C193.689 18.5414 193.383 18.6512 192.994 18.7518C192.616 18.8433 192.188 18.9302 191.709 19.0125C191.231 19.0856 190.753 19.1542 190.274 19.2183C189.796 19.2731 189.362 19.3234 188.973 19.3692C188.139 19.4698 187.41 19.6299 186.788 19.8494C186.165 20.0689 185.681 20.3661 185.336 20.7411C184.991 21.107 184.819 21.5643 184.819 22.1131C184.819 22.9088 185.169 23.517 185.87 23.9378C186.582 24.3494 187.483 24.5552 188.573 24.5552Z" fill="white"/>
<path d="M228.889 7.11765V24.1573H232.977V34.9683H226.07V28.1908H206.483V7.11765H213.273V23.5948H222.182V7.11765H228.889Z" fill="white"/>
<path d="M244.151 20.4805L253.377 7.11765H260.384V28.1908H253.61V14.7869L244.418 28.1908H237.36V7.11765H244.151V20.4805Z" fill="white"/>
<path d="M281.097 28.1908V11.7H276.292C274.991 11.7 274.001 11.9469 273.322 12.4408C272.644 12.9347 272.31 13.5201 272.321 14.1969C272.31 14.8829 272.633 15.4637 273.289 15.9393C273.956 16.4058 274.935 16.639 276.225 16.639H283.466V20.5902H276.225C274.034 20.5902 272.138 20.3158 270.536 19.767C268.934 19.2183 267.7 18.4545 266.832 17.4759C265.965 16.4881 265.536 15.3402 265.548 14.0323C265.536 12.6603 265.965 11.4576 266.832 10.4241C267.7 9.38137 268.94 8.57192 270.553 7.9957C272.177 7.41033 274.09 7.11765 276.292 7.11765H287.72V28.1908H281.097ZM264.813 28.1908L271.937 17.2152H278.728L271.62 28.1908H264.813Z" fill="white"/>
<path d="M304.116 28.1908V7.11765H315.044C318.203 7.11765 320.7 7.61155 322.535 8.59936C324.37 9.58716 325.288 10.9911 325.288 12.8112C325.288 13.9545 324.771 14.9058 323.736 15.6649C322.702 16.4241 321.267 16.9363 319.432 17.2015C320.967 17.293 322.274 17.5811 323.353 18.0658C324.443 18.5414 325.271 19.1588 325.839 19.918C326.417 20.6771 326.706 21.5186 326.706 22.4424C326.706 23.6405 326.317 24.6695 325.538 25.5292C324.771 26.389 323.642 27.0475 322.151 27.5048C320.672 27.9622 318.865 28.1908 316.729 28.1908H304.116ZM310.74 23.8143H316.729C317.719 23.8143 318.492 23.6222 319.048 23.2381C319.616 22.8448 319.899 22.3097 319.899 21.6329C319.899 20.8829 319.616 20.293 319.048 19.8631C318.492 19.4332 317.719 19.2183 316.729 19.2183H310.74V23.8143ZM310.74 15.7884H315.194C315.906 15.7884 316.512 15.7061 317.013 15.5414C317.524 15.3677 317.914 15.1207 318.181 14.8006C318.459 14.4805 318.598 14.1009 318.598 13.6619C318.598 13.0125 318.281 12.5048 317.647 12.139C317.013 11.7731 316.145 11.5902 315.044 11.5902H310.74V15.7884Z" fill="white"/>
<path d="M335.64 13.5933H343.298C346.691 13.5933 349.338 14.2609 351.24 15.5963C353.142 16.9225 354.093 18.6969 354.093 20.9195C354.093 22.3646 353.664 23.6359 352.808 24.7335C351.952 25.8219 350.717 26.6725 349.104 27.2853C347.491 27.889 345.556 28.1908 343.298 28.1908H331.186V7.11765H337.976V23.5948H343.298C344.488 23.5948 345.467 23.3478 346.235 22.8539C347.002 22.36 347.391 21.7289 347.402 20.9606C347.391 20.1466 347.002 19.4835 346.235 18.9713C345.467 18.45 344.488 18.1893 343.298 18.1893H335.64V13.5933ZM356.845 28.1908V7.11765H363.953V28.1908H356.845Z" fill="white"/>
<path d="M369.634 28.1908V7.11765H392.04V28.1908H385.25V11.7137H376.34V28.1908H369.634Z" fill="white"/>
<path d="M401.183 36.0933C400.282 36.0933 399.436 36.0338 398.647 35.9149C397.868 35.8052 397.223 35.6634 396.711 35.4896L398.313 31.1268C399.147 31.3372 399.898 31.4515 400.565 31.4698C401.244 31.4881 401.828 31.36 402.317 31.0856C402.818 30.8113 403.224 30.3448 403.535 29.6863L403.952 28.7945L394.759 7.11765H402.234L407.539 22.5933H407.806L413.162 7.11765H420.686L410.726 30.4683C410.247 31.6024 409.597 32.5902 408.774 33.4317C407.962 34.2823 406.933 34.9363 405.687 35.3936C404.441 35.86 402.94 36.0933 401.183 36.0933Z" fill="white"/>
<path d="M435.076 28.6024C432.451 28.6024 430.193 28.1451 428.302 27.2305C426.422 26.3067 424.976 25.0262 423.964 23.389C422.963 21.7518 422.463 19.8677 422.463 17.7366C422.463 15.578 422.969 13.6847 423.981 12.0567C425.004 10.4195 426.456 9.14357 428.335 8.22893C430.215 7.30515 432.451 6.84326 435.042 6.84326C437.278 6.84326 439.236 7.1771 440.915 7.84479C442.595 8.51247 443.924 9.44997 444.902 10.6573C445.881 11.8646 446.421 13.2823 446.521 14.9103H439.814C439.625 13.8585 439.124 13.0125 438.312 12.3722C437.512 11.7228 436.461 11.3981 435.159 11.3981C434.058 11.3981 433.096 11.6451 432.273 12.139C431.461 12.6238 430.827 13.3326 430.371 14.2655C429.915 15.1984 429.687 16.328 429.687 17.6542C429.687 18.9987 429.909 20.142 430.354 21.0841C430.81 22.0262 431.45 22.7442 432.273 23.2381C433.096 23.732 434.058 23.9789 435.159 23.9789C435.971 23.9789 436.7 23.8417 437.345 23.5674C438.001 23.293 438.54 22.8951 438.963 22.3738C439.397 21.8433 439.68 21.2076 439.814 20.4667H446.521C446.41 22.0765 445.876 23.4942 444.919 24.7198C443.974 25.9363 442.667 26.8875 440.998 27.5734C439.33 28.2594 437.356 28.6024 435.076 28.6024Z" fill="white"/>
<path d="M451.071 28.1908V7.11765H458.179V15.2945H460.181L467.154 7.11765H475.496L466.437 17.5719L475.596 28.1908H467.154L460.831 20.7137H458.179V28.1908H451.071Z" fill="white"/>
<path d="M496.435 15.3219V19.918H483.054V15.3219H496.435ZM485.39 7.11765V28.1908H478.6V7.11765H485.39ZM500.889 7.11765V28.1908H494.149V7.11765H500.889Z" fill="white"/>
<path d="M513.193 20.4805L522.42 7.11765H529.427V28.1908H522.653V14.7869L513.46 28.1908H506.403V7.11765H513.193V20.4805Z" fill="white"/>
<path d="M535.124 28.1908V7.11765H542.232V15.2945H544.234L551.207 7.11765H559.549L550.49 17.5719L559.649 28.1908H551.207L544.884 20.7137H542.232V28.1908H535.124Z" fill="white"/>
<path d="M573.176 28.6024C570.584 28.6024 568.343 28.1497 566.452 27.2442C564.573 26.3295 563.121 25.0582 562.098 23.4302C561.074 21.793 560.563 19.8951 560.563 17.7366C560.563 15.5597 561.074 13.6573 562.098 12.0292C563.121 10.392 564.573 9.1207 566.452 8.21521C568.343 7.30058 570.584 6.84326 573.176 6.84326C575.767 6.84326 578.003 7.30058 579.883 8.21521C581.773 9.1207 583.231 10.392 584.254 12.0292C585.277 13.6573 585.789 15.5597 585.789 17.7366C585.789 19.8951 585.277 21.793 584.254 23.4302C583.231 25.0582 581.773 26.3295 579.883 27.2442C578.003 28.1497 575.767 28.6024 573.176 28.6024ZM573.209 24.075C574.388 24.075 575.372 23.8006 576.162 23.2518C576.952 22.6939 577.547 21.9347 577.947 20.9744C578.359 20.014 578.565 18.921 578.565 17.6954C578.565 16.4698 578.359 15.3768 577.947 14.4164C577.547 13.4561 576.952 12.6969 576.162 12.139C575.372 11.5811 574.388 11.3021 573.209 11.3021C572.019 11.3021 571.018 11.5811 570.206 12.139C569.405 12.6969 568.799 13.4561 568.388 14.4164C567.987 15.3768 567.787 16.4698 567.787 17.6954C567.787 18.921 567.987 20.014 568.388 20.9744C568.799 21.9347 569.405 22.6939 570.206 23.2518C571.018 23.8006 572.019 24.075 573.209 24.075Z" fill="white"/>
<path d="M590.41 28.1908V7.11765H601.338C604.497 7.11765 606.994 7.61155 608.829 8.59936C610.664 9.58716 611.582 10.9911 611.582 12.8112C611.582 13.9545 611.065 14.9058 610.03 15.6649C608.996 16.4241 607.561 16.9363 605.726 17.2015C607.261 17.293 608.568 17.5811 609.647 18.0658C610.737 18.5414 611.565 19.1588 612.132 19.918C612.711 20.6771 613 21.5186 613 22.4424C613 23.6405 612.611 24.6695 611.832 25.5292C611.065 26.389 609.936 27.0475 608.445 27.5048C606.966 27.9622 605.159 28.1908 603.023 28.1908H590.41ZM597.034 23.8143H603.023C604.013 23.8143 604.786 23.6222 605.342 23.2381C605.909 22.8448 606.193 22.3097 606.193 21.6329C606.193 20.8829 605.909 20.293 605.342 19.8631C604.786 19.4332 604.013 19.2183 603.023 19.2183H597.034V23.8143ZM597.034 15.7884H601.488C602.2 15.7884 602.806 15.7061 603.307 15.5414C603.818 15.3677 604.208 15.1207 604.475 14.8006C604.753 14.4805 604.892 14.1009 604.892 13.6619C604.892 13.0125 604.575 12.5048 603.941 12.139C603.307 11.7731 602.439 11.5902 601.338 11.5902H597.034V15.7884Z" fill="white"/>
</svg>
